<svg xmlns="http://www.w3.org/2000/svg" xmlns:xlink="http://www.w3.org/1999/xlink" width="200" zoomAndPan="magnify" viewBox="0 0 150 74.999997" height="100" preserveAspectRatio="xMidYMid meet" version="1.0"><defs><g/></defs><g fill="#6aab33" fill-opacity="1"><g transform="translate(54.614336, 44.363929)"><g><path d="M 9.46875 -8.296875 L 9.46875 -13.5 L 12.1875 -13.5 L 12.1875 0 L 9.46875 0 L 9.46875 -6.015625 L 4.140625 -6.015625 L 4.140625 0 L 1.421875 0 L 1.421875 -13.5 L 4.140625 -13.5 L 4.140625 -8.296875 Z M 9.46875 -8.296875 "/></g></g></g><g fill="#6aab33" fill-opacity="1"><g transform="translate(68.213355, 44.363929)"><g><path d="M 0.640625 -4.9375 C 0.640625 -5.894531 0.835938 -6.757812 1.234375 -7.53125 C 1.628906 -8.300781 2.195312 -8.898438 2.9375 -9.328125 C 3.675781 -9.765625 4.550781 -9.984375 5.5625 -9.984375 C 6.582031 -9.984375 7.46875 -9.765625 8.21875 -9.328125 C 8.96875 -8.890625 9.535156 -8.285156 9.921875 -7.515625 C 10.316406 -6.753906 10.515625 -5.890625 10.515625 -4.921875 C 10.515625 -3.921875 10.316406 -3.03125 9.921875 -2.25 C 9.535156 -1.476562 8.96875 -0.867188 8.21875 -0.421875 C 7.476562 0.015625 6.597656 0.234375 5.578125 0.234375 C 4.554688 0.234375 3.675781 0.015625 2.9375 -0.421875 C 2.195312 -0.867188 1.628906 -1.476562 1.234375 -2.25 C 0.835938 -3.03125 0.640625 -3.925781 0.640625 -4.9375 Z M 5.546875 -7.875 C 5.117188 -7.875 4.734375 -7.753906 4.390625 -7.515625 C 4.054688 -7.285156 3.789062 -6.941406 3.59375 -6.484375 C 3.394531 -6.023438 3.296875 -5.488281 3.296875 -4.875 C 3.296875 -4.269531 3.382812 -3.738281 3.5625 -3.28125 C 3.75 -2.832031 4.015625 -2.488281 4.359375 -2.25 C 4.703125 -2.007812 5.101562 -1.890625 5.5625 -1.890625 C 6.019531 -1.890625 6.421875 -2.007812 6.765625 -2.25 C 7.117188 -2.488281 7.390625 -2.832031 7.578125 -3.28125 C 7.765625 -3.738281 7.859375 -4.28125 7.859375 -4.90625 C 7.859375 -5.5 7.765625 -6.019531 7.578125 -6.46875 C 7.398438 -6.914062 7.132812 -7.257812 6.78125 -7.5 C 6.4375 -7.75 6.023438 -7.875 5.546875 -7.875 Z M 5.546875 -7.875 "/></g></g></g><g fill="#6aab33" fill-opacity="1"><g transform="translate(79.372466, 44.363929)"><g><path d="M 4.703125 -8.15625 C 4.296875 -8.15625 3.960938 -8.082031 3.703125 -7.9375 C 3.453125 -7.789062 3.328125 -7.59375 3.328125 -7.34375 C 3.328125 -7.144531 3.382812 -6.976562 3.5 -6.84375 C 3.625 -6.71875 3.835938 -6.597656 4.140625 -6.484375 C 4.453125 -6.378906 4.878906 -6.285156 5.421875 -6.203125 C 6.660156 -5.992188 7.570312 -5.640625 8.15625 -5.140625 C 8.75 -4.648438 9.046875 -3.957031 9.046875 -3.0625 C 9.046875 -2.4375 8.878906 -1.867188 8.546875 -1.359375 C 8.222656 -0.859375 7.75 -0.46875 7.125 -0.1875 C 6.5 0.09375 5.765625 0.234375 4.921875 0.234375 C 3.640625 0.234375 2.628906 -0.0195312 1.890625 -0.53125 C 1.160156 -1.050781 0.71875 -1.804688 0.5625 -2.796875 L 2.984375 -3.171875 C 3.097656 -2.660156 3.304688 -2.273438 3.609375 -2.015625 C 3.910156 -1.753906 4.347656 -1.625 4.921875 -1.625 C 5.410156 -1.625 5.800781 -1.710938 6.09375 -1.890625 C 6.394531 -2.078125 6.546875 -2.332031 6.546875 -2.65625 C 6.546875 -2.832031 6.492188 -2.984375 6.390625 -3.109375 C 6.296875 -3.242188 6.113281 -3.359375 5.84375 -3.453125 C 5.582031 -3.546875 5.207031 -3.632812 4.71875 -3.71875 C 3.363281 -3.925781 2.378906 -4.304688 1.765625 -4.859375 C 1.148438 -5.410156 0.84375 -6.144531 0.84375 -7.0625 C 0.84375 -7.65625 1 -8.171875 1.3125 -8.609375 C 1.625 -9.054688 2.070312 -9.394531 2.65625 -9.625 C 3.25 -9.863281 3.945312 -9.984375 4.75 -9.984375 C 5.894531 -9.984375 6.816406 -9.753906 7.515625 -9.296875 C 8.210938 -8.847656 8.632812 -8.207031 8.78125 -7.375 L 6.3125 -7.015625 C 6.238281 -7.378906 6.054688 -7.660156 5.765625 -7.859375 C 5.484375 -8.054688 5.128906 -8.15625 4.703125 -8.15625 Z M 4.703125 -8.15625 "/></g></g></g><g fill="#6aab33" fill-opacity="1"><g transform="translate(89.030809, 44.363929)"><g><path d="M 3.90625 -1.046875 L 3.875 -1.046875 L 3.875 3.734375 L 1.28125 3.734375 L 1.28125 -9.765625 L 3.6875 -9.765625 L 3.6875 -8.328125 L 3.734375 -8.328125 C 4.078125 -8.898438 4.515625 -9.316406 5.046875 -9.578125 C 5.585938 -9.847656 6.164062 -9.984375 6.78125 -9.984375 C 7.5625 -9.984375 8.265625 -9.769531 8.890625 -9.34375 C 9.515625 -8.925781 10.003906 -8.320312 10.359375 -7.53125 C 10.710938 -6.75 10.890625 -5.832031 10.890625 -4.78125 C 10.890625 -3.75 10.710938 -2.851562 10.359375 -2.09375 C 10.015625 -1.34375 9.53125 -0.765625 8.90625 -0.359375 C 8.28125 0.0351562 7.5625 0.234375 6.75 0.234375 C 6.113281 0.234375 5.585938 0.140625 5.171875 -0.046875 C 4.753906 -0.234375 4.332031 -0.566406 3.90625 -1.046875 Z M 6.15625 -7.921875 C 5.476562 -7.921875 4.921875 -7.660156 4.484375 -7.140625 C 4.054688 -6.628906 3.84375 -5.804688 3.84375 -4.671875 C 3.84375 -4.085938 3.929688 -3.582031 4.109375 -3.15625 C 4.296875 -2.726562 4.554688 -2.398438 4.890625 -2.171875 C 5.222656 -1.941406 5.613281 -1.828125 6.0625 -1.828125 C 6.769531 -1.828125 7.304688 -2.085938 7.671875 -2.609375 C 8.046875 -3.140625 8.234375 -3.90625 8.234375 -4.90625 C 8.234375 -5.851562 8.046875 -6.59375 7.671875 -7.125 C 7.304688 -7.65625 6.800781 -7.921875 6.15625 -7.921875 Z M 6.15625 -7.921875 "/></g></g></g><g fill="#6aab33" fill-opacity="1"><g transform="translate(100.567418, 44.363929)"><g><path d="M 1.28125 -11.109375 L 1.28125 -13.5 L 3.875 -13.5 L 3.875 -11.109375 Z M 1.28125 0 L 1.28125 -9.765625 L 3.875 -9.765625 L 3.875 0 Z M 1.28125 0 "/></g></g></g><g fill="#6aab33" fill-opacity="1"><g transform="translate(105.714239, 44.363929)"><g><path d="M 5.96875 -9.765625 L 5.96875 -7.71875 L 4.15625 -7.71875 L 4.15625 -2.953125 C 4.15625 -2.671875 4.171875 -2.457031 4.203125 -2.3125 C 4.242188 -2.164062 4.316406 -2.0625 4.421875 -2 C 4.523438 -1.945312 4.675781 -1.921875 4.875 -1.921875 C 5.195312 -1.921875 5.539062 -1.972656 5.90625 -2.078125 L 6.21875 -0.078125 C 5.9375 0.015625 5.625 0.0859375 5.28125 0.140625 C 4.9375 0.203125 4.59375 0.234375 4.25 0.234375 C 3.5625 0.234375 3.019531 0.140625 2.625 -0.046875 C 2.238281 -0.242188 1.960938 -0.554688 1.796875 -0.984375 C 1.640625 -1.421875 1.5625 -2.019531 1.5625 -2.78125 L 1.5625 -7.71875 L 0.1875 -7.71875 L 0.1875 -9.765625 L 1.5625 -9.765625 L 1.5625 -11.5625 L 4.15625 -13.390625 L 4.15625 -9.765625 Z M 5.96875 -9.765625 "/></g></g></g><g fill="#6aab33" fill-opacity="1"><g transform="translate(112.278966, 44.363929)"><g><path d="M 9.75 0 L 7.203125 0 C 7.066406 -0.28125 6.960938 -0.640625 6.890625 -1.078125 C 6.023438 -0.203125 5.007812 0.234375 3.84375 0.234375 C 3.207031 0.234375 2.644531 0.113281 2.15625 -0.125 C 1.675781 -0.375 1.300781 -0.722656 1.03125 -1.171875 C 0.769531 -1.617188 0.640625 -2.128906 0.640625 -2.703125 C 0.640625 -3.566406 0.921875 -4.253906 1.484375 -4.765625 C 2.054688 -5.273438 2.929688 -5.617188 4.109375 -5.796875 C 5.285156 -5.984375 6.113281 -6.160156 6.59375 -6.328125 L 6.59375 -6.515625 C 6.59375 -7.085938 6.453125 -7.476562 6.171875 -7.6875 C 5.890625 -7.90625 5.476562 -8.015625 4.9375 -8.015625 C 4.507812 -8.015625 4.148438 -7.914062 3.859375 -7.71875 C 3.566406 -7.519531 3.347656 -7.207031 3.203125 -6.78125 L 0.84375 -7.140625 C 1.101562 -8.128906 1.582031 -8.847656 2.28125 -9.296875 C 2.976562 -9.753906 3.914062 -9.984375 5.09375 -9.984375 C 6.039062 -9.984375 6.8125 -9.863281 7.40625 -9.625 C 8.007812 -9.382812 8.457031 -9 8.75 -8.46875 C 9.039062 -7.945312 9.1875 -7.257812 9.1875 -6.40625 L 9.1875 -2.40625 C 9.1875 -1.945312 9.21875 -1.5625 9.28125 -1.25 C 9.351562 -0.9375 9.507812 -0.519531 9.75 0 Z M 4.609375 -4.1875 C 3.691406 -4 3.234375 -3.550781 3.234375 -2.84375 C 3.234375 -2.445312 3.34375 -2.140625 3.5625 -1.921875 C 3.789062 -1.710938 4.117188 -1.609375 4.546875 -1.609375 C 4.972656 -1.609375 5.363281 -1.710938 5.71875 -1.921875 C 5.96875 -2.066406 6.148438 -2.222656 6.265625 -2.390625 C 6.390625 -2.554688 6.472656 -2.773438 6.515625 -3.046875 C 6.566406 -3.328125 6.59375 -3.710938 6.59375 -4.203125 L 6.59375 -4.671875 C 6.132812 -4.503906 5.472656 -4.34375 4.609375 -4.1875 Z M 4.609375 -4.1875 "/></g></g></g><g fill="#6aab33" fill-opacity="1"><g transform="translate(122.64626, 44.363929)"><g><path d="M 1.28125 0 L 1.28125 -13.5 L 3.875 -13.5 L 3.875 0 Z M 1.28125 0 "/></g></g></g><g fill="#6aab33" fill-opacity="1"><g transform="translate(127.79308, 44.363929)"><g><path d="M 1.28125 -11.109375 L 1.28125 -13.5 L 3.875 -13.5 L 3.875 -11.109375 Z M 1.28125 0 L 1.28125 -9.765625 L 3.875 -9.765625 L 3.875 0 Z M 1.28125 0 "/></g></g></g><g fill="#6aab33" fill-opacity="1"><g transform="translate(132.939901, 44.363929)"><g><path d="M 5.96875 -9.765625 L 5.96875 -7.71875 L 4.15625 -7.71875 L 4.15625 -2.953125 C 4.15625 -2.671875 4.171875 -2.457031 4.203125 -2.3125 C 4.242188 -2.164062 4.316406 -2.0625 4.421875 -2 C 4.523438 -1.945312 4.675781 -1.921875 4.875 -1.921875 C 5.195312 -1.921875 5.539062 -1.972656 5.90625 -2.078125 L 6.21875 -0.078125 C 5.9375 0.015625 5.625 0.0859375 5.28125 0.140625 C 4.9375 0.203125 4.59375 0.234375 4.25 0.234375 C 3.5625 0.234375 3.019531 0.140625 2.625 -0.046875 C 2.238281 -0.242188 1.960938 -0.554688 1.796875 -0.984375 C 1.640625 -1.421875 1.5625 -2.019531 1.5625 -2.78125 L 1.5625 -7.71875 L 0.1875 -7.71875 L 0.1875 -9.765625 L 1.5625 -9.765625 L 1.5625 -11.5625 L 4.15625 -13.390625 L 4.15625 -9.765625 Z M 5.96875 -9.765625 "/></g></g></g><g fill="#6aab33" fill-opacity="1"><g transform="translate(139.504629, 44.363929)"><g><path d="M 5.234375 -2.828125 L 5.28125 -2.828125 C 5.46875 -3.503906 5.59375 -3.941406 5.65625 -4.140625 L 7.546875 -9.765625 L 10.21875 -9.765625 L 6.46875 0.28125 C 5.882812 1.8125 5.328125 2.804688 4.796875 3.265625 C 4.253906 3.722656 3.488281 3.953125 2.5 3.953125 C 2.050781 3.953125 1.457031 3.875 0.71875 3.71875 L 1.15625 1.734375 C 1.53125 1.847656 1.832031 1.90625 2.0625 1.90625 C 2.375 1.90625 2.628906 1.851562 2.828125 1.75 C 3.023438 1.65625 3.207031 1.472656 3.375 1.203125 C 3.539062 0.941406 3.71875 0.546875 3.90625 0.015625 L 0.171875 -9.765625 L 2.921875 -9.765625 L 4.828125 -4.203125 C 4.941406 -3.878906 5.078125 -3.421875 5.234375 -2.828125 Z M 5.234375 -2.828125 "/></g></g></g><g fill="#bab7b1" fill-opacity="1"><g transform="translate(0.000003, 43.115941)"><g><path d="M 7.375 0.226562 C 9.65625 0.226562 11.164062 -0.828125 12.21875 -2.261719 L 10.878906 -3 C 10.164062 -1.921875 8.863281 -1.167969 7.375 -1.167969 C 4.675781 -1.167969 2.582031 -3.300781 2.582031 -6.28125 C 2.582031 -9.277344 4.675781 -11.390625 7.375 -11.390625 C 8.863281 -11.390625 10.164062 -10.617188 10.878906 -9.5625 L 12.199219 -10.296875 C 11.199219 -11.710938 9.65625 -12.785156 7.375 -12.785156 C 3.808594 -12.785156 0.960938 -10.144531 0.960938 -6.28125 C 0.960938 -2.414062 3.808594 0.226562 7.375 0.226562 Z M 7.375 0.226562 "/></g></g></g><g fill="#bab7b1" fill-opacity="1"><g transform="translate(12.746882, 43.115941)"><g><path d="M 8.523438 0 L 8.523438 -6.261719 C 8.523438 -8.46875 6.921875 -9.335938 4.996094 -9.335938 C 3.507812 -9.335938 2.339844 -8.84375 1.359375 -7.824219 L 2.019531 -6.84375 C 2.828125 -7.710938 3.714844 -8.109375 4.808594 -8.109375 C 6.128906 -8.109375 7.109375 -7.410156 7.109375 -6.183594 L 7.109375 -4.542969 C 6.375 -5.394531 5.335938 -5.789062 4.09375 -5.789062 C 2.546875 -5.789062 0.90625 -4.828125 0.90625 -2.789062 C 0.90625 -0.8125 2.546875 0.226562 4.09375 0.226562 C 5.316406 0.226562 6.355469 -0.207031 7.109375 -1.039062 L 7.109375 0 Z M 7.109375 -1.921875 C 6.5625 -1.167969 5.601562 -0.792969 4.601562 -0.792969 C 3.28125 -0.792969 2.355469 -1.621094 2.355469 -2.773438 C 2.355469 -3.941406 3.28125 -4.769531 4.601562 -4.769531 C 5.601562 -4.769531 6.5625 -4.394531 7.109375 -3.640625 Z M 7.109375 -1.921875 "/></g></g></g><g fill="#bab7b1" fill-opacity="1"><g transform="translate(22.684164, 43.115941)"><g><path d="M 2.828125 0 L 2.828125 -6.449219 C 3.242188 -7.183594 4.429688 -7.902344 5.300781 -7.902344 C 5.523438 -7.902344 5.695312 -7.882812 5.863281 -7.84375 L 5.863281 -9.296875 C 4.621094 -9.296875 3.5625 -8.597656 2.828125 -7.636719 L 2.828125 -9.109375 L 1.414062 -9.109375 L 1.414062 0 Z M 2.828125 0 "/></g></g></g><g fill="#bab7b1" fill-opacity="1"><g transform="translate(28.90675, 43.115941)"><g><path d="M 2.113281 -10.636719 C 2.640625 -10.636719 3.074219 -11.070312 3.074219 -11.597656 C 3.074219 -12.125 2.640625 -12.539062 2.113281 -12.539062 C 1.601562 -12.539062 1.167969 -12.125 1.167969 -11.597656 C 1.167969 -11.070312 1.601562 -10.636719 2.113281 -10.636719 Z M 2.828125 0 L 2.828125 -9.109375 L 1.414062 -9.109375 L 1.414062 0 Z M 2.828125 0 "/></g></g></g><g fill="#bab7b1" fill-opacity="1"><g transform="translate(33.149426, 43.115941)"><g><path d="M 2.828125 0 L 2.828125 -1.359375 C 3.507812 -0.433594 4.621094 0.226562 5.902344 0.226562 C 8.277344 0.226562 9.957031 -1.585938 9.957031 -4.542969 C 9.957031 -7.449219 8.277344 -9.335938 5.902344 -9.335938 C 4.65625 -9.335938 3.5625 -8.730469 2.828125 -7.730469 L 2.828125 -12.578125 L 1.414062 -12.578125 L 1.414062 0 Z M 2.828125 -6.601562 C 3.320312 -7.390625 4.429688 -8.070312 5.542969 -8.070312 C 7.390625 -8.070312 8.484375 -6.5625 8.484375 -4.542969 C 8.484375 -2.527344 7.390625 -1.039062 5.542969 -1.039062 C 4.429688 -1.039062 3.320312 -1.679688 2.828125 -2.46875 Z M 2.828125 -6.601562 "/></g></g></g><g fill="#bab7b1" fill-opacity="1"><g transform="translate(43.991811, 43.115941)"><g><path d="M 0.886719 -4.5625 C 0.886719 -1.714844 2.828125 0.226562 5.523438 0.226562 C 7.015625 0.226562 8.242188 -0.265625 9.144531 -1.167969 L 8.46875 -2.09375 C 7.75 -1.359375 6.695312 -0.941406 5.65625 -0.941406 C 3.695312 -0.941406 2.488281 -2.375 2.375 -4.09375 L 9.75 -4.09375 L 9.75 -4.449219 C 9.75 -7.183594 8.128906 -9.335938 5.375 -9.335938 C 2.773438 -9.335938 0.886719 -7.203125 0.886719 -4.5625 Z M 5.355469 -8.164062 C 7.429688 -8.164062 8.335938 -6.488281 8.355469 -5.128906 L 2.375 -5.128906 C 2.453125 -6.523438 3.414062 -8.164062 5.355469 -8.164062 Z M 5.355469 -8.164062 "/></g></g></g></svg>