<svg xmlns="http://www.w3.org/2000/svg" xmlns:xlink="http://www.w3.org/1999/xlink" width="50" zoomAndPan="magnify" viewBox="0 0 375 374.999991" height="50" preserveAspectRatio="xMidYMid meet" version="1.0"><defs><clipPath id="8e3f3b24f5"><path d="M 9.265625 9.265625 L 365.515625 9.265625 L 365.515625 365.515625 L 9.265625 365.515625 Z M 9.265625 9.265625 " clip-rule="nonzero"/></clipPath></defs><g clip-path="url(#8e3f3b24f5)"><path fill="#0a66c2" d="M 365.726562 311.527344 C 365.726562 341.441406 341.476562 365.691406 311.558594 365.691406 L 63.445312 365.691406 C 33.527344 365.691406 9.28125 341.441406 9.28125 311.527344 L 9.28125 63.410156 C 9.28125 33.492188 33.527344 9.242188 63.445312 9.242188 L 311.5625 9.242188 C 341.476562 9.242188 365.730469 33.492188 365.730469 63.410156 L 365.730469 311.527344 Z M 365.726562 311.527344 " fill-opacity="1" fill-rule="nonzero"/></g><path fill="#ffffff" d="M 150.226562 136.414062 C 150.226562 137.289062 150.183594 138.15625 150.097656 139.023438 C 150.011719 139.894531 149.886719 140.753906 149.714844 141.609375 C 149.542969 142.464844 149.332031 143.308594 149.078125 144.144531 C 148.828125 144.980469 148.535156 145.800781 148.199219 146.605469 C 147.867188 147.410156 147.492188 148.199219 147.082031 148.96875 C 146.671875 149.738281 146.222656 150.484375 145.738281 151.207031 C 145.253906 151.933594 144.734375 152.632812 144.183594 153.308594 C 143.628906 153.980469 143.042969 154.628906 142.425781 155.242188 C 141.8125 155.859375 141.164062 156.445312 140.492188 157 C 139.816406 157.550781 139.117188 158.070312 138.390625 158.554688 C 137.667969 159.039062 136.921875 159.488281 136.152344 159.898438 C 135.382812 160.308594 134.59375 160.683594 133.789062 161.015625 C 132.984375 161.351562 132.164062 161.644531 131.328125 161.894531 C 130.492188 162.148438 129.648438 162.359375 128.792969 162.53125 C 127.9375 162.703125 127.078125 162.828125 126.207031 162.914062 C 125.339844 163 124.472656 163.042969 123.597656 163.042969 C 122.726562 163.042969 121.855469 163 120.988281 162.914062 C 120.121094 162.828125 119.257812 162.703125 118.402344 162.53125 C 117.546875 162.359375 116.703125 162.148438 115.871094 161.894531 C 115.035156 161.644531 114.214844 161.351562 113.410156 161.015625 C 112.601562 160.683594 111.816406 160.308594 111.046875 159.898438 C 110.277344 159.488281 109.53125 159.039062 108.804688 158.554688 C 108.082031 158.070312 107.378906 157.550781 106.707031 157 C 106.03125 156.445312 105.386719 155.859375 104.769531 155.242188 C 104.152344 154.628906 103.570312 153.980469 103.015625 153.308594 C 102.460938 152.632812 101.941406 151.933594 101.457031 151.207031 C 100.972656 150.484375 100.527344 149.738281 100.113281 148.96875 C 99.703125 148.199219 99.332031 147.410156 98.996094 146.605469 C 98.664062 145.800781 98.371094 144.980469 98.117188 144.144531 C 97.863281 143.308594 97.652344 142.464844 97.484375 141.609375 C 97.3125 140.753906 97.183594 139.894531 97.097656 139.023438 C 97.015625 138.15625 96.972656 137.289062 96.972656 136.414062 C 96.972656 135.542969 97.015625 134.671875 97.097656 133.804688 C 97.183594 132.9375 97.3125 132.074219 97.484375 131.21875 C 97.652344 130.363281 97.863281 129.519531 98.117188 128.683594 C 98.371094 127.851562 98.664062 127.03125 98.996094 126.226562 C 99.332031 125.417969 99.703125 124.632812 100.113281 123.863281 C 100.527344 123.09375 100.972656 122.347656 101.457031 121.621094 C 101.941406 120.894531 102.460938 120.195312 103.015625 119.523438 C 103.570312 118.847656 104.152344 118.203125 104.769531 117.585938 C 105.386719 116.96875 106.03125 116.386719 106.707031 115.832031 C 107.378906 115.277344 108.082031 114.757812 108.804688 114.273438 C 109.53125 113.789062 110.277344 113.34375 111.046875 112.929688 C 111.816406 112.519531 112.601562 112.148438 113.410156 111.8125 C 114.214844 111.480469 115.035156 111.1875 115.871094 110.933594 C 116.703125 110.679688 117.546875 110.46875 118.402344 110.300781 C 119.257812 110.128906 120.121094 110 120.988281 109.914062 C 121.855469 109.832031 122.726562 109.789062 123.597656 109.789062 C 124.472656 109.789062 125.339844 109.832031 126.207031 109.914062 C 127.078125 110 127.9375 110.128906 128.792969 110.300781 C 129.648438 110.46875 130.492188 110.679688 131.328125 110.933594 C 132.164062 111.1875 132.984375 111.480469 133.789062 111.8125 C 134.59375 112.148438 135.382812 112.519531 136.152344 112.929688 C 136.921875 113.34375 137.667969 113.789062 138.390625 114.273438 C 139.117188 114.757812 139.816406 115.277344 140.492188 115.832031 C 141.164062 116.386719 141.8125 116.96875 142.425781 117.585938 C 143.042969 118.203125 143.628906 118.847656 144.183594 119.523438 C 144.734375 120.195312 145.253906 120.894531 145.738281 121.621094 C 146.222656 122.347656 146.671875 123.09375 147.082031 123.863281 C 147.492188 124.632812 147.867188 125.417969 148.199219 126.226562 C 148.535156 127.03125 148.828125 127.851562 149.078125 128.683594 C 149.332031 129.519531 149.542969 130.363281 149.714844 131.21875 C 149.886719 132.074219 150.011719 132.9375 150.097656 133.804688 C 150.183594 134.671875 150.226562 135.542969 150.226562 136.414062 Z M 150.226562 136.414062 " fill-opacity="1" fill-rule="nonzero"/><path fill="#ffffff" d="M 100.644531 182.675781 L 146.390625 182.675781 L 146.390625 329.835938 L 100.644531 329.835938 Z M 100.644531 182.675781 " fill-opacity="1" fill-rule="nonzero"/><path fill="#ffffff" d="M 175.160156 182.675781 L 218.703125 182.675781 L 218.703125 329.835938 L 175.160156 329.835938 Z M 175.160156 182.675781 " fill-opacity="1" fill-rule="nonzero"/><path fill="#ffffff" d="M 177.042969 261.027344 L 220.582031 261.027344 L 220.582031 329.835938 L 177.042969 329.835938 Z M 177.042969 261.027344 " fill-opacity="1" fill-rule="nonzero"/><path fill="#ffffff" d="M 220.582031 261.027344 C 220.582031 261.027344 219.902344 241.941406 224.933594 232.015625 C 224.933594 232.015625 229.96875 219.792969 245.792969 219.71875 C 245.792969 219.71875 264.351562 216.480469 269.671875 234.894531 C 269.671875 234.894531 271.6875 245.105469 271.6875 249.421875 C 271.6875 253.742188 271.832031 329.839844 271.832031 329.839844 L 317.433594 329.839844 L 317.433594 245.539062 C 317.433594 245.539062 320.742188 197.921875 292.160156 184.878906 C 292.160156 184.878906 245.167969 163.78125 219.660156 202.527344 C 219.660156 202.527344 214.097656 206.359375 213.332031 195.621094 C 212.5625 184.878906 206.042969 212.117188 205.851562 212.691406 C 205.65625 213.269531 213.332031 266.972656 213.332031 266.972656 Z M 220.582031 261.027344 " fill-opacity="1" fill-rule="nonzero"/></svg>